<svg version="1.1" id="Layer_1" xmlns="http://www.w3.org/2000/svg" x="0" y="0" viewBox="0 0 454 244" xml:space="preserve"><style>.st0{fill:#fff}</style><path class="st0" d="M252.4 136.4v2.4l-10.6.5v-3c-1.4 2.1-3.9 3.2-7.1 3.2-3 0-4.7-.7-5.6-2.1-.8-1.3-.8-3.2-.8-5.6v-9.2l-2 .5v-2.7l9.6-2.4v15.2c0 1.5 0 2.6.5 3.1.2.2.6.3 1 .3 2.4 0 4.3-3.5 4.3-4.9v-9.2l-1.7.4v-2.7l9.3-2.3v18.5h3.1z"/><path class="st0" d="M227.6 78.1c-32.2 0-58.4 19.7-58.4 43.8s26.2 43.8 58.4 43.8 58.5-19.7 58.5-43.8-26.2-43.8-58.5-43.8zm0 84.3c-30.1 0-54-17.6-55.1-38.9l6-1-.6 3.7 9.2-1.8v12.4l-2.9-.1v2.1h13c1.8 0 3.7 0 5.8-.3 7-1.2 13.1-7.6 13.1-13.8 0-4.6-3.8-7.9-9.3-7.9-.5 0-1 0-1.5.1 3.8-2 6.2-4.3 7.2-6.8l5-1.1v27.9h-2.9v2H228v-2h-3.2v-32l-.4.1-11.5 2.7v-.8c-.2-3.4-2.8-5.3-7.1-5.3-1.2 0-2.4.1-3.6.4l-18.2 4.5-.2.1v2.4l.4-.1 2.9-.7v12.6l-5.9 1.3.7-3.4-9.3 2.2v-.9c1.3-21.2 25.1-38.7 55.1-38.7 30.9 0 55.1 18.5 55.1 40.5 0 1 0 2-.1 3v.1l-4.7 1.3.4-3.6-6.7 1.9c-1.2-3.6-5-6.2-9.4-6.2-5.7 0-11.7 3.7-11.7 10.6 0 5.2 3.6 10.3 11.8 10.3 5.1 0 8.5-2.4 9.7-6.8l-2.3.9c-1.3 2.6-3.8 4-7.1 4-2.6 0-3.6-.9-3.6-3.1v-3l12.1-3.2 4.2-1.1-.2 1.7-.2 1.9.4-.1 6.9-2.8c-3.8 19.4-26.5 34.8-54.7 34.8zm-29.8-42.1c.9-.2 1.8-.3 2.6-.3 4 0 6.7 2.4 6.7 5.9 0 4.4-4.2 9.1-9.4 10.4-.5.1-1.1.2-1.6.3v-15.7c.5-.3 1.1-.5 1.7-.6zm-1.8-14.6c.8-.2 1.6-.3 2.3-.3 3.4 0 5.7 1.8 5.7 4.6 0 3.4-3.6 7.2-8 8.4v-12.7zm68.8 16.6v5.4l-5.8 1.4v-6.7c0-1.6 1.4-2 2.7-2 1.5.1 3.1.5 3.1 1.9z"/></svg>