<svg xmlns="http://www.w3.org/2000/svg" viewBox="0 0 454 512"><path d="M179.5 241.8l4.3 2.7-1.3-4.8 4-3.2-5.1-.3-1.9-4.7-1.9 4.7-5.1.3 4 3.2-1.3 4.8 4.3-2.7zm15.3 11.5l-4.6 5.3c-2.9 3.3-6.6 5.2-10.7 5.2h-2v6.7h2c5.8 0 11.2-2.7 15.3-7.4l4.6-5.3c2.9-3.3 6.6-5.2 10.7-5.2h1.9v-6.7h-1.9c-5.8.1-11.3 2.7-15.3 7.4zm-57.3 4.9v12.3h11.8c3.1 0 6.1-1.3 8.3-3.6 0 0 5.7-6 9.1-9.5v13.1h6.4V246h-23.8c-6.6 0-11.8 5.4-11.8 12.2zm15.5 4c-1 1-2.4 1.6-3.8 1.6h-5.4v-5.6c0-3.1 2.4-5.6 5.4-5.6h13.1c-3.4 3.5-9.3 9.6-9.3 9.6zm69.9-20.7h-6.5v17.6c0 6.3 5.3 11.4 12 11.4h18v-6.2h-18c-3 0-5.5-2.3-5.5-5.2v-5.2h23.6v-6.2h-23.6v-6.2zm28 16.7v12.3h6.4v-12.3c0-3.1 2.5-5.6 5.5-5.6h17V246h-17c-6.5 0-11.9 5.4-11.9 12.2zm42.7-12.2c-6.3 0-11.5 5.5-11.5 12.3 0 6.7 5.1 12.3 11.5 12.3H305c6.3 0 11.5-5.5 11.5-12.3V246h-22.9zm16.6 12.2c0 3.2-2.4 5.6-5.3 5.6h-11.4c-2.9 0-5.3-2.5-5.3-5.6s2.4-5.6 5.3-5.6h16.7v5.6z" fill="#fff"/></svg>