<?xml version="1.0" encoding="utf-8"?>
<!-- Generator: Adobe Illustrator 25.4.0, SVG Export Plug-In . SVG Version: 6.00 Build 0)  -->
<svg version="1.1" id="Layer_1" xmlns="http://www.w3.org/2000/svg" xmlns:xlink="http://www.w3.org/1999/xlink" x="0px" y="0px"
	 viewBox="0 0 1500 564" style="enable-background:new 0 0 1500 564;" xml:space="preserve">
<style type="text/css">
	.st0{fill:#FF2947;}
</style>
<g>
	<path class="st0" d="M105.7,332.9v223.2H0V7.8h206c70.5,0,112,17.2,142.6,49.3c27.4,28.2,43.1,70.5,43.1,113.6
		c0,43.1-15.7,85.4-43.1,113.6c-29.8,31.3-72.1,48.6-142.6,48.6H105.7z M201.3,238.9c36,0,54-8.6,66.6-21.9
		c11.7-12.5,18-28.2,18-46.2c0-18-6.3-34.5-18-47c-12.5-13.3-30.5-21.9-66.6-21.9h-95.6v137.1H201.3z"/>
	<path class="st0" d="M736.3,0c169.2,0,285.9,126.1,285.9,282S905.5,564,736.3,564c-169.2,0-285.9-126.1-285.9-282S567.1,0,736.3,0z
		 M736.3,470c103.4,0,180.2-84.6,180.2-188c0-103.4-76.8-188-180.2-188c-103.4,0-180.2,84.6-180.2,188
		C556.1,385.4,632.9,470,736.3,470z"/>
	<path class="st0" d="M1214.1,332.9v223.2h-105.7V7.8h206c70.5,0,112,17.2,142.6,49.3c27.4,28.2,43.1,70.5,43.1,113.6
		c0,43.1-15.7,85.4-43.1,113.6c-29.8,31.3-72.1,48.6-142.6,48.6H1214.1z M1309.7,238.9c36,0,54-8.6,66.6-21.9
		c11.7-12.5,18-28.2,18-46.2c0-18-6.3-34.5-18-47c-12.5-13.3-30.5-21.9-66.6-21.9h-95.6v137.1H1309.7z"/>
</g>
</svg>
