<?xml version="1.0" encoding="utf-8"?>
<!-- Generator: Adobe Illustrator 23.0.2, SVG Export Plug-In . SVG Version: 6.00 Build 0)  -->
<svg version="1.1" id="Layer_1" xmlns="http://www.w3.org/2000/svg" xmlns:xlink="http://www.w3.org/1999/xlink" x="0px" y="0px"
	 viewBox="0 0 24 24" style="enable-background:new 0 0 24 24;" xml:space="preserve">
<style type="text/css">
	.st0{fill:none;stroke:#3540A5;stroke-miterlimit:10;}
	.st1{fill:none;stroke:#FFBE1E;stroke-width:2;stroke-linecap:round;stroke-linejoin:round;stroke-miterlimit:10;}
</style>
<g>
	<path class="st0" d="M5,17H3.93C2.87,17,2,16.1,2,15v0c0-1.1,0.87-2,1.93-2H5V17z"/>
	<path class="st0" d="M19,13h1.07c1.07,0,1.93,0.9,1.93,2v0c0,1.1-0.87,2-1.93,2H19V13z"/>
	<path class="st0" d="M20,17v0.26c0,1.51-1.42,2.74-3.17,2.74H12"/>
	<line class="st1" x1="11" y1="20" x2="14" y2="20"/>
	<path class="st0" d="M4,13v-1.22C4,6.93,7.58,3,12,3h0c4.42,0,8,3.93,8,8.78V13"/>
</g>
</svg>
