<?xml version="1.0" encoding="utf-8"?>
<!-- Generator: Adobe Illustrator 23.0.2, SVG Export Plug-In . SVG Version: 6.00 Build 0)  -->
<svg version="1.1" id="Layer_1" xmlns="http://www.w3.org/2000/svg" xmlns:xlink="http://www.w3.org/1999/xlink" x="0px" y="0px"
	 viewBox="0 0 24 24" style="enable-background:new 0 0 24 24;" xml:space="preserve">
<style type="text/css">
	.st0{fill:#FFBE1E;}
	.st1{fill:#2A2A2A;}
</style>
<title>Group 14</title>
<desc>Created with Sketch.</desc>
<g>
	<g>
		<path class="st0" d="M11.4,22c-0.3,0-0.6,0-0.8-0.1c-2.4-0.3-3.7-2.1-3.7-2.1l1.3-0.9c0,0,1,1.3,2.7,1.5c1.4,0.2,3-0.4,4.7-1.7
			l0.9,1.2C14.8,21.3,13.1,22,11.4,22z"/>
	</g>
	<path class="st1" d="M14.6,2c-1.9,0-3.3,1.1-3.7,3.1L8.7,16.2l1.6,1.3l0.7-3.7c0.1,0.5,0.8,0.9,1.4,0.9c1.8,0,2.8-1.1,3.2-3.1
		L17,5.1C17.4,3.1,16.5,2,14.6,2z M15.1,5.2l-1.3,6.3c-0.2,1-0.8,1.5-1.5,1.5s-1.1-0.5-0.9-1.5l1.3-6.3c0.2-1,0.8-1.5,1.5-1.5
		C14.9,3.7,15.3,4.2,15.1,5.2z"/>
</g>
</svg>
