<?xml version="1.0" encoding="utf-8"?>
<!-- Generator: Adobe Illustrator 23.0.2, SVG Export Plug-In . SVG Version: 6.00 Build 0)  -->
<svg version="1.1" id="Layer_1" xmlns="http://www.w3.org/2000/svg" xmlns:xlink="http://www.w3.org/1999/xlink" x="0px" y="0px"
	 viewBox="0 0 24 24" style="enable-background:new 0 0 24 24;" xml:space="preserve">
<style type="text/css">
	.st0{fill:#2A2A2A;}
	.st1{fill:none;stroke:#2A2A2A;stroke-miterlimit:10;}
</style>
<title>Group 14</title>
<desc>Created with Sketch.</desc>
<g>
	<path class="st0" d="M13.4,16.1l1.4-6.7c0.1-0.7,0-1-0.5-1s-0.8,0.3-0.9,1l-1.5,7.5l-1.1-0.8L12,9.4c0.1-0.7,0-1-0.5-1
		c-0.5,0-0.8,0.3-0.9,1L9,16.9l-1.1-0.8l1.4-6.8c0.3-1.4,1.1-2.2,2.5-2.2c0.7,0,1.1,0.3,1.2,0.7c0.3-0.4,0.9-0.7,1.5-0.7
		c1.3,0,1.9,0.8,1.6,2.2l-1.5,7.6L13.4,16.1z"/>
</g>
<circle class="st1" cx="12" cy="12" r="8.5"/>
</svg>
