<?xml version="1.0" encoding="utf-8"?>
<!-- Generator: Adobe Illustrator 23.0.2, SVG Export Plug-In . SVG Version: 6.00 Build 0)  -->
<svg version="1.1" id="Layer_1" xmlns="http://www.w3.org/2000/svg" xmlns:xlink="http://www.w3.org/1999/xlink" x="0px" y="0px"
	 viewBox="0 0 24 24" style="enable-background:new 0 0 24 24;" xml:space="preserve">
<style type="text/css">
	.st0{fill:#898F9C;}
	.st1{fill:#FFFFFF;}
</style>
<g>
	<path class="st0" d="M21,12c0-4.97-4.03-9-9-9s-9,4.03-9,9c0,4.49,3.29,8.22,7.59,8.89V14.6H8.31V12h2.29v-1.98
		c0-2.26,1.34-3.5,3.4-3.5c0.98,0,2.01,0.18,2.01,0.18v2.21h-1.13c-1.12,0-1.47,0.69-1.47,1.41V12h2.5l-0.4,2.6h-2.1v6.29
		C17.71,20.22,21,16.49,21,12z"/>
	<path class="st1" d="M15.5,14.6l0.4-2.6h-2.5v-1.69c0-0.71,0.35-1.41,1.47-1.41h1.13V6.69c0,0-1.03-0.18-2.01-0.18
		c-2.06,0-3.4,1.25-3.4,3.5V12H8.31v2.6h2.29v6.29C11.05,20.96,11.52,21,12,21s0.95-0.04,1.41-0.11V14.6H15.5z"/>
</g>
</svg>
