<?xml version="1.0" encoding="utf-8"?>
<!-- Generator: Adobe Illustrator 23.0.2, SVG Export Plug-In . SVG Version: 6.00 Build 0)  -->
<svg version="1.1" id="Layer_1" xmlns="http://www.w3.org/2000/svg" xmlns:xlink="http://www.w3.org/1999/xlink" x="0px" y="0px"
	 viewBox="0 0 24 24" style="enable-background:new 0 0 24 24;" xml:space="preserve">
<style type="text/css">
	.st0{fill:#898F9C;}
</style>
<path class="st0" d="M15.09,18.69H8.91c-1.14,0-2.06-0.92-2.06-2.06v0c0-2.27,1.84-4.11,4.11-4.11h2.06c2.27,0,4.11,1.84,4.11,4.11
	v0C17.14,17.76,16.22,18.69,15.09,18.69z M14.57,8.4V7.89c0-1.42-1.15-2.57-2.57-2.57h0c-1.42,0-2.57,1.15-2.57,2.57V8.4
	c0,1.42,1.15,2.57,2.57,2.57h0C13.42,10.97,14.57,9.82,14.57,8.4z M6.61,13.03H6.09c-1.7,0-3.09,1.38-3.09,3.09
	c0,0.85,0.69,1.54,1.54,1.54h0.92c-0.1-0.33-0.15-0.67-0.15-1.03C5.31,15.26,5.8,14.01,6.61,13.03z M17.91,13.03h-0.53
	c0.81,0.98,1.3,2.23,1.3,3.6c0,0.36-0.05,0.7-0.15,1.03h0.92c0.85,0,1.54-0.69,1.54-1.54C21,14.41,19.62,13.03,17.91,13.03z
	 M8.4,10.2V9.69c0-0.99-0.81-1.8-1.8-1.8h0c-0.99,0-1.8,0.81-1.8,1.8v0.51c0,0.99,0.81,1.8,1.8,1.8h0C7.59,12,8.4,11.19,8.4,10.2z
	 M17.4,12L17.4,12c0.99,0,1.8-0.81,1.8-1.8V9.69c0-0.99-0.81-1.8-1.8-1.8h0c-0.99,0-1.8,0.81-1.8,1.8v0.51
	C15.6,11.19,16.41,12,17.4,12z"/>
</svg>
