<?xml version="1.0" encoding="utf-8"?>
<!-- Generator: Adobe Illustrator 25.0.1, SVG Export Plug-In . SVG Version: 6.00 Build 0)  -->
<svg version="1.1" id="Layer_1" xmlns="http://www.w3.org/2000/svg" xmlns:xlink="http://www.w3.org/1999/xlink" x="0px" y="0px"
	 viewBox="0 0 24 24" style="enable-background:new 0 0 24 24;" xml:space="preserve">
<style type="text/css">
	.st0{fill:none;stroke:#3540A5;stroke-miterlimit:10;}
	.st1{fill:#FFBE1E;}
</style>
<circle class="st0" cx="12" cy="12" r="8.5"/>
<g>
	<path class="st1" d="M8.6,9.2c0.9-1.1,2.1-1.7,3.4-1.7c1.8,0,3.2,0.9,3.2,2.7c0,1.7-2.1,2.1-2.1,2.9v0.7h-2.5l0-1.1
		c0-1.2,2.1-1.9,2.1-2.6c0-0.5-0.5-0.6-1-0.6c-0.6,0-1.3,0.6-1.7,1.1L8.6,9.2z M11.8,14.2c0.9,0,1.6,0.6,1.6,1.4
		c0,0.7-0.6,1.4-1.6,1.4c-0.9,0-1.5-0.7-1.5-1.4C10.3,14.9,10.8,14.2,11.8,14.2z"/>
</g>
</svg>
