<?xml version="1.0" encoding="utf-8"?>
<!-- Generator: Adobe Illustrator 23.0.2, SVG Export Plug-In . SVG Version: 6.00 Build 0)  -->
<svg version="1.1" id="Layer_1" xmlns="http://www.w3.org/2000/svg" xmlns:xlink="http://www.w3.org/1999/xlink" x="0px" y="0px"
	 viewBox="0 0 24 24" style="enable-background:new 0 0 24 24;" xml:space="preserve">
<style type="text/css">
	.st0{fill:#898F9C;}
</style>
<g>
	<path class="st0" d="M12,4.62c2.4,0,2.69,0.01,3.64,0.05c0.88,0.04,1.35,0.19,1.67,0.31c0.42,0.16,0.72,0.36,1.03,0.67
		c0.31,0.31,0.51,0.61,0.67,1.03c0.12,0.32,0.27,0.79,0.31,1.67c0.04,0.95,0.05,1.23,0.05,3.64s-0.01,2.69-0.05,3.64
		c-0.04,0.88-0.19,1.35-0.31,1.67c-0.16,0.42-0.36,0.72-0.67,1.03c-0.31,0.31-0.61,0.51-1.03,0.67c-0.32,0.12-0.79,0.27-1.67,0.31
		c-0.95,0.04-1.23,0.05-3.64,0.05s-2.69-0.01-3.64-0.05c-0.88-0.04-1.35-0.19-1.67-0.31c-0.42-0.16-0.72-0.36-1.03-0.67
		c-0.31-0.31-0.51-0.61-0.67-1.03c-0.12-0.32-0.27-0.79-0.31-1.67C4.63,14.69,4.62,14.4,4.62,12s0.01-2.69,0.05-3.64
		c0.04-0.88,0.19-1.35,0.31-1.67c0.16-0.42,0.36-0.72,0.67-1.03c0.31-0.31,0.61-0.51,1.03-0.67c0.32-0.12,0.79-0.27,1.67-0.31
		C9.31,4.63,9.6,4.62,12,4.62 M12,3C9.56,3,9.25,3.01,8.29,3.05C7.33,3.1,6.68,3.25,6.1,3.47C5.51,3.7,5.01,4.01,4.51,4.51
		c-0.5,0.5-0.81,1-1.04,1.59C3.25,6.68,3.1,7.33,3.05,8.29C3.01,9.25,3,9.56,3,12c0,2.44,0.01,2.75,0.05,3.71
		c0.04,0.96,0.2,1.61,0.42,2.18c0.23,0.59,0.54,1.09,1.04,1.59c0.5,0.5,1,0.81,1.59,1.04c0.57,0.22,1.23,0.37,2.18,0.42
		C9.25,20.99,9.56,21,12,21s2.75-0.01,3.71-0.05c0.96-0.04,1.61-0.2,2.18-0.42c0.59-0.23,1.09-0.54,1.59-1.04
		c0.5-0.5,0.81-1,1.04-1.59c0.22-0.57,0.37-1.23,0.42-2.18C20.99,14.75,21,14.44,21,12s-0.01-2.75-0.05-3.71
		c-0.04-0.96-0.2-1.61-0.42-2.18c-0.23-0.59-0.54-1.09-1.04-1.59c-0.5-0.5-1-0.81-1.59-1.04c-0.57-0.22-1.23-0.37-2.18-0.42
		C14.75,3.01,14.44,3,12,3L12,3z"/>
	<path class="st0" d="M12,7.38c-2.55,0-4.62,2.07-4.62,4.62c0,2.55,2.07,4.62,4.62,4.62s4.62-2.07,4.62-4.62
		C16.62,9.45,14.55,7.38,12,7.38z M12,15c-1.66,0-3-1.34-3-3c0-1.66,1.34-3,3-3c1.66,0,3,1.34,3,3C15,13.66,13.66,15,12,15z"/>
	<circle class="st0" cx="16.8" cy="7.2" r="1.08"/>
</g>
</svg>
