<?xml version="1.0" encoding="utf-8"?>
<!-- Generator: Adobe Illustrator 23.0.2, SVG Export Plug-In . SVG Version: 6.00 Build 0)  -->
<svg version="1.1" id="Layer_1" xmlns="http://www.w3.org/2000/svg" xmlns:xlink="http://www.w3.org/1999/xlink" x="0px" y="0px"
	 viewBox="0 0 24 24" style="enable-background:new 0 0 24 24;" xml:space="preserve">
<style type="text/css">
	.st0{fill:#FFBE1E;}
	.st1{fill:none;stroke:#3540A5;stroke-miterlimit:10;}
</style>
<g>
	<ellipse transform="matrix(0.9848 -0.1736 0.1736 0.9848 -1.4944 3.207)" class="st0" cx="17.6" cy="10.1" rx="1" ry="4.5"/>
	<ellipse transform="matrix(0.9848 -0.1736 0.1736 0.9848 -1.4944 3.207)" class="st1" cx="17.6" cy="10.1" rx="2.5" ry="7"/>
	<path class="st1" d="M18.8,17c0,0-7.4-1.2-12.4-0.9c0,0-2-0.1-2.6-3.5s1.3-4.2,1.3-4.2c4.7-1.5,11.3-5.1,11.3-5.1"/>
	<path class="st1" d="M7.5,16.1L8.2,20c0,0.3,0.2,0.5,0.5,0.6l0.6,0.2c0.5,0.2,1-0.3,0.9-0.8l-0.7-3.8"/>
</g>
</svg>
